# xmcd CD database file
#
# Track frame offsets:
#	150
#	32836
#	60196
#	81715
#	106646
#	126369
#	142331
#	169184
#	189228
#	212507
#	235821
#	260944
#	277058
#
# Disc length: 4062 seconds
#
# Revision: 0
# Processed by: cddbd v1.5.1PL2 Copyright (c) Steve Scherf et al.
# Submitted via: CDex 1.51
#
DISCID=c30fdc0d
DTITLE=Los Titanes - Tributo A Héctor Lavoe "La Voz"
DYEAR=1999
DGENRE=Salsa
TTITLE0=El Cantante 
TTITLE1=Juanito Alimaña 
TTITLE2=Mi Gente 
TTITLE3=Triste Y Vacía 
TTITLE4=El Todo Poderoso 
TTITLE5=De Qué Tamaño 
TTITLE6=Periódico De Ayer 
TTITLE7=De Ti Depende 
TTITLE8=La Murga 
TTITLE9=Déjala Que Siga 
TTITLE10=El Día De Suerte 
TTITLE11=Cheche Colé 
TTITLE12=Mosaico "Homenaje A Héctor Lavoe": La Murga - Juanito Alimaña - El Cantante - Periodico De Ayer 
EXTD=YEAR: 1999
EXTT0=
EXTT1=
EXTT2=
EXTT3=
EXTT4=
EXTT5=
EXTT6=
EXTT7=
EXTT8=
EXTT9=
EXTT10=
EXTT11=
EXTT12=
PLAYORDER=
